<?xml version="1.0" encoding="UTF-8"?>
<svg id="Layer_2" data-name="Layer 2" xmlns="http://www.w3.org/2000/svg" viewBox="0 0 872.74 940.48">
  <defs>
    <style>
      .cls-1 {
        fill: #fff;
      }
    </style>
  </defs>
  <g id="Layer_1-2" data-name="Layer 1">
    <path class="cls-1" d="m268.99,33.5C91.35,104.92-16.51,279.02,2.07,464.31c18.54,184.84,163.49,337.07,354.73,372.52q80.46,14.92,88.44,103.65c10.34-1.43,18.31-1.88,25.94-3.69,216.48-51.58,383.37-249.92,400.29-475.53C895.57,139.91,573.34-88.87,268.99,33.5Zm228.56,219.53c34.42-26.79,73.12-31.21,111.9-12.77,41.85,19.89,61.5,54.1,60.09,104.57l-.18,6.59h-64.44l-.89-5.78c-5-32.75-12.8-49.4-41.48-49.4h-.24c-18.51.06-29.1,7.55-39.2,49.93l-1.25,5.26h-62.07l-.7-6.03c-4.38-38.02,8.56-69.1,38.46-92.36Zm-256.35-4.09c34.49-23.83,72.63-26.11,110.3-6.61,39.32,20.36,57.56,53.88,55.75,102.49l-.24,6.53h-61.21l-1.62-4.59c-16.97-47.97-26.83-52.27-45.43-50.61-18.94,1.69-28.82,9.27-37.23,49.75l-1.13,5.44h-62.89l-.53-6.22c-3.52-41.72,10.94-73.18,44.23-96.18Zm386.05,330.89c-45.47,53.6-114.02,88.12-183.39,92.34-4.54.28-9.09.41-13.63.41-59.16,0-118.43-23.17-164.48-64.71-48.8-44.01-76.92-103.72-77.16-163.82l-.06-15.86h16.45c17.1,0,34.25,0,51.42.02l12.21.02,3.48,11.28c33.24,107.68,82.06,150.31,168.93,147.15,78.33-2.86,129.26-52.46,151.35-147.44l2.87-12.34h76.53l1.95,13.65c6.66,46.66-9.84,96.14-46.46,139.31Z"/>
  </g>
</svg>